<mxfile host="app.diagrams.net" modified="2022-06-22T00:16:48.820Z" agent="5.0 (Windows NT 10.0; Win64; x64) AppleWebKit/537.36 (KHTML, like Gecko) Chrome/102.0.5005.115 Safari/537.36" etag="xATREeBKT-W4Y2Ua6dZL" version="20.0.2" type="github">
  <diagram id="8c9g8hSu4nHSWESZOwIv" name="Page-1">
    <mxGraphModel dx="1102" dy="614" grid="1" gridSize="10" guides="1" tooltips="1" connect="1" arrows="1" fold="1" page="1" pageScale="1" pageWidth="1169" pageHeight="827" math="0" shadow="0">
      <root>
        <mxCell id="0" />
        <mxCell id="1" parent="0" />
        <mxCell id="q6HhuqfVfLuF7LrFSHBB-26" style="edgeStyle=orthogonalEdgeStyle;rounded=0;orthogonalLoop=1;jettySize=auto;html=1;entryX=0;entryY=0.5;entryDx=0;entryDy=0;" edge="1" parent="1" source="q6HhuqfVfLuF7LrFSHBB-1" target="q6HhuqfVfLuF7LrFSHBB-24">
          <mxGeometry relative="1" as="geometry">
            <mxPoint x="320" y="220" as="targetPoint" />
          </mxGeometry>
        </mxCell>
        <mxCell id="q6HhuqfVfLuF7LrFSHBB-29" style="edgeStyle=orthogonalEdgeStyle;rounded=0;orthogonalLoop=1;jettySize=auto;html=1;" edge="1" parent="1" source="q6HhuqfVfLuF7LrFSHBB-1" target="q6HhuqfVfLuF7LrFSHBB-30">
          <mxGeometry relative="1" as="geometry">
            <mxPoint x="180" y="190" as="targetPoint" />
          </mxGeometry>
        </mxCell>
        <mxCell id="q6HhuqfVfLuF7LrFSHBB-1" value="Remetente" style="rounded=0;whiteSpace=wrap;html=1;" vertex="1" parent="1">
          <mxGeometry x="250" y="80" width="120" height="60" as="geometry" />
        </mxCell>
        <mxCell id="q6HhuqfVfLuF7LrFSHBB-2" value="" style="endArrow=classic;html=1;rounded=0;" edge="1" parent="1">
          <mxGeometry relative="1" as="geometry">
            <mxPoint x="370" y="110" as="sourcePoint" />
            <mxPoint x="560" y="110" as="targetPoint" />
          </mxGeometry>
        </mxCell>
        <mxCell id="q6HhuqfVfLuF7LrFSHBB-3" value="Envia" style="edgeLabel;resizable=0;html=1;align=center;verticalAlign=middle;" connectable="0" vertex="1" parent="q6HhuqfVfLuF7LrFSHBB-2">
          <mxGeometry relative="1" as="geometry" />
        </mxCell>
        <mxCell id="q6HhuqfVfLuF7LrFSHBB-4" value="1" style="edgeLabel;resizable=0;html=1;align=left;verticalAlign=bottom;" connectable="0" vertex="1" parent="q6HhuqfVfLuF7LrFSHBB-2">
          <mxGeometry x="-1" relative="1" as="geometry" />
        </mxCell>
        <mxCell id="q6HhuqfVfLuF7LrFSHBB-5" value="n" style="edgeLabel;resizable=0;html=1;align=right;verticalAlign=bottom;" connectable="0" vertex="1" parent="q6HhuqfVfLuF7LrFSHBB-2">
          <mxGeometry x="1" relative="1" as="geometry" />
        </mxCell>
        <mxCell id="q6HhuqfVfLuF7LrFSHBB-12" style="edgeStyle=orthogonalEdgeStyle;rounded=0;orthogonalLoop=1;jettySize=auto;html=1;startArrow=none;" edge="1" parent="1" source="q6HhuqfVfLuF7LrFSHBB-15" target="q6HhuqfVfLuF7LrFSHBB-7">
          <mxGeometry relative="1" as="geometry" />
        </mxCell>
        <mxCell id="q6HhuqfVfLuF7LrFSHBB-6" value="Encomendas" style="rounded=0;whiteSpace=wrap;html=1;" vertex="1" parent="1">
          <mxGeometry x="560" y="80" width="120" height="60" as="geometry" />
        </mxCell>
        <mxCell id="q6HhuqfVfLuF7LrFSHBB-18" style="edgeStyle=orthogonalEdgeStyle;rounded=0;orthogonalLoop=1;jettySize=auto;html=1;" edge="1" parent="1" source="q6HhuqfVfLuF7LrFSHBB-7" target="q6HhuqfVfLuF7LrFSHBB-17">
          <mxGeometry relative="1" as="geometry" />
        </mxCell>
        <mxCell id="q6HhuqfVfLuF7LrFSHBB-7" value="Formas de Envio: SEDEX, PAC..." style="rounded=0;whiteSpace=wrap;html=1;" vertex="1" parent="1">
          <mxGeometry x="560" y="290" width="120" height="60" as="geometry" />
        </mxCell>
        <mxCell id="q6HhuqfVfLuF7LrFSHBB-13" value="1" style="text;html=1;strokeColor=none;fillColor=none;align=center;verticalAlign=middle;whiteSpace=wrap;rounded=0;" vertex="1" parent="1">
          <mxGeometry x="600" y="140" width="60" height="30" as="geometry" />
        </mxCell>
        <mxCell id="q6HhuqfVfLuF7LrFSHBB-14" value="n" style="text;html=1;strokeColor=none;fillColor=none;align=center;verticalAlign=middle;whiteSpace=wrap;rounded=0;" vertex="1" parent="1">
          <mxGeometry x="610" y="270" width="60" height="30" as="geometry" />
        </mxCell>
        <mxCell id="q6HhuqfVfLuF7LrFSHBB-15" value="Possui" style="rhombus;whiteSpace=wrap;html=1;" vertex="1" parent="1">
          <mxGeometry x="580" y="180" width="80" height="80" as="geometry" />
        </mxCell>
        <mxCell id="q6HhuqfVfLuF7LrFSHBB-16" value="" style="edgeStyle=orthogonalEdgeStyle;rounded=0;orthogonalLoop=1;jettySize=auto;html=1;endArrow=none;" edge="1" parent="1" source="q6HhuqfVfLuF7LrFSHBB-6" target="q6HhuqfVfLuF7LrFSHBB-15">
          <mxGeometry relative="1" as="geometry">
            <mxPoint x="620" y="140" as="sourcePoint" />
            <mxPoint x="620" y="290" as="targetPoint" />
          </mxGeometry>
        </mxCell>
        <mxCell id="q6HhuqfVfLuF7LrFSHBB-17" value="DestinatÃ¡rio" style="rounded=1;whiteSpace=wrap;html=1;" vertex="1" parent="1">
          <mxGeometry x="250" y="290" width="120" height="60" as="geometry" />
        </mxCell>
        <mxCell id="q6HhuqfVfLuF7LrFSHBB-19" value="n" style="text;html=1;strokeColor=none;fillColor=none;align=center;verticalAlign=middle;whiteSpace=wrap;rounded=0;" vertex="1" parent="1">
          <mxGeometry x="520" y="300" width="60" height="30" as="geometry" />
        </mxCell>
        <mxCell id="q6HhuqfVfLuF7LrFSHBB-20" value="1" style="text;html=1;strokeColor=none;fillColor=none;align=center;verticalAlign=middle;whiteSpace=wrap;rounded=0;" vertex="1" parent="1">
          <mxGeometry x="350" y="290" width="60" height="30" as="geometry" />
        </mxCell>
        <mxCell id="q6HhuqfVfLuF7LrFSHBB-21" value="Processadas" style="rhombus;whiteSpace=wrap;html=1;" vertex="1" parent="1">
          <mxGeometry x="430" y="280" width="80" height="80" as="geometry" />
        </mxCell>
        <mxCell id="q6HhuqfVfLuF7LrFSHBB-22" value="Envia" style="rhombus;whiteSpace=wrap;html=1;" vertex="1" parent="1">
          <mxGeometry x="430" y="70" width="80" height="80" as="geometry" />
        </mxCell>
        <mxCell id="q6HhuqfVfLuF7LrFSHBB-25" style="edgeStyle=orthogonalEdgeStyle;rounded=0;orthogonalLoop=1;jettySize=auto;html=1;entryX=0;entryY=0;entryDx=0;entryDy=0;" edge="1" parent="1" source="q6HhuqfVfLuF7LrFSHBB-24" target="q6HhuqfVfLuF7LrFSHBB-7">
          <mxGeometry relative="1" as="geometry" />
        </mxCell>
        <mxCell id="q6HhuqfVfLuF7LrFSHBB-24" value="Escolhe" style="rhombus;whiteSpace=wrap;html=1;" vertex="1" parent="1">
          <mxGeometry x="360" y="170" width="80" height="80" as="geometry" />
        </mxCell>
        <mxCell id="q6HhuqfVfLuF7LrFSHBB-27" value="1" style="text;html=1;strokeColor=none;fillColor=none;align=center;verticalAlign=middle;whiteSpace=wrap;rounded=0;" vertex="1" parent="1">
          <mxGeometry x="300" y="140" width="60" height="30" as="geometry" />
        </mxCell>
        <mxCell id="q6HhuqfVfLuF7LrFSHBB-28" value="1" style="text;html=1;strokeColor=none;fillColor=none;align=center;verticalAlign=middle;whiteSpace=wrap;rounded=0;" vertex="1" parent="1">
          <mxGeometry x="540" y="260" width="60" height="30" as="geometry" />
        </mxCell>
        <mxCell id="q6HhuqfVfLuF7LrFSHBB-31" style="edgeStyle=orthogonalEdgeStyle;rounded=0;orthogonalLoop=1;jettySize=auto;html=1;entryX=0;entryY=0.75;entryDx=0;entryDy=0;" edge="1" parent="1" source="q6HhuqfVfLuF7LrFSHBB-30" target="q6HhuqfVfLuF7LrFSHBB-17">
          <mxGeometry relative="1" as="geometry">
            <Array as="points">
              <mxPoint x="180" y="330" />
              <mxPoint x="250" y="330" />
            </Array>
          </mxGeometry>
        </mxCell>
        <mxCell id="q6HhuqfVfLuF7LrFSHBB-30" value="Direciona" style="rhombus;whiteSpace=wrap;html=1;" vertex="1" parent="1">
          <mxGeometry x="140" y="190" width="80" height="80" as="geometry" />
        </mxCell>
        <mxCell id="q6HhuqfVfLuF7LrFSHBB-32" value="1" style="text;html=1;strokeColor=none;fillColor=none;align=center;verticalAlign=middle;whiteSpace=wrap;rounded=0;" vertex="1" parent="1">
          <mxGeometry x="200" y="80" width="60" height="30" as="geometry" />
        </mxCell>
        <mxCell id="q6HhuqfVfLuF7LrFSHBB-33" value="1" style="text;html=1;strokeColor=none;fillColor=none;align=center;verticalAlign=middle;whiteSpace=wrap;rounded=0;" vertex="1" parent="1">
          <mxGeometry x="190" y="300" width="60" height="30" as="geometry" />
        </mxCell>
        <mxCell id="q6HhuqfVfLuF7LrFSHBB-34" value="Alexandre B.&lt;br&gt;Flavio V." style="rounded=1;whiteSpace=wrap;html=1;" vertex="1" parent="1">
          <mxGeometry x="390" y="390" width="120" height="60" as="geometry" />
        </mxCell>
      </root>
    </mxGraphModel>
  </diagram>
</mxfile>
